# xmcd
#
# Track frame offsets:
#	187
#	18702
#	31452
#	44235
#	60487
#	79007
#	93895
#	113187
#	124862
#	141540
#	156045
#	172175
#	182495
#	199925
#	215555
#	229585
#	245222
#	261720
#
# Disc length: 3701 seconds
#
# Revision: 1
# Processed by: cddbd v1.5.1PL0 Copyright (c) Steve Scherf et al.
# Submitted via: CDex 1.50Beta5
#
DISCID=140e7312
DTITLE=倉本裕基 - 永遠のスクリーン・ミュージック〜ミュージカル・音楽映画編
DYEAR=1994
DGENRE=
TTITLE0=倉本裕基/美女と野獣
TTITLE1=ストリングス’90/雨に唄えば
TTITLE2=ジェット・ストリーム・オーケストラ/オルフェのサンバ
TTITLE3=ジェット・ストリーム・オーケストラ/君住む街で
TTITLE4=ジェット・ストリーム・オーケストラ/サウンド・オブ・ミュージック
TTITLE5=奥田宗宏/ムーンライト・セレナーデ
TTITLE6=ジューヌ・プルミエール・オーケストラ/フラッシュダンス
TTITLE7=ジェット・ストリーム・オーケストラ/この胸のときめきを
TTITLE8=倉本裕基/愛は消えない
TTITLE9=ストリングス’90/サンライズ・サンセット
TTITLE10=ジェット・ストリーム・オーケストラ/レット・イット・ビー
TTITLE11=クレモナ・ストリングス・オーケストラ/見果てぬ夢
TTITLE12=ムービーランド・エクスプレス/ステイン・アライブ
TTITLE13=ストリングス’90/魅惑の宵
TTITLE14=クレモナ・ストリングス・オーケストラ/サマータイム
TTITLE15=ジェット・ストリーム・オーケストラ/マイ・ファニー・バレンタイン
TTITLE16=クレモナ・ストリングス・オーケストラ/トゥ・ラブ・アゲイン
TTITLE17=倉本裕基/虹の彼方に
EXTD=
EXTT0=
EXTT1=
EXTT2=
EXTT3=
EXTT4=
EXTT5=
EXTT6=
EXTT7=
EXTT8=
EXTT9=
EXTT10=
EXTT11=
EXTT12=
EXTT13=
EXTT14=
EXTT15=
EXTT16=
EXTT17=
PLAYORDER=
